HIERARCHY
ROOT Hips
{
	OFFSET 0.000000 0.000000 0.000000
	CHANNELS 6 Xposition Yposition Zposition Xrotation Yrotation Zrotation
	JOINT LeftUpLeg_virtual
	{
		OFFSET 0.000000 0.000000 0.000000
		CHANNELS 3 Xrotation Yrotation Zrotation
		JOINT LeftUpLeg
		{
			OFFSET 10.205400 -3.823500 0.155100
			CHANNELS 3 Xrotation Yrotation Zrotation
			JOINT LeftLeg
			{
				OFFSET 0.708757 -12.982077 0.567790
				CHANNELS 3 Xrotation Yrotation Zrotation
				JOINT LeftFoot
				{
					OFFSET -0.708756 -10.717838 -2.184338
					CHANNELS 3 Xrotation Yrotation Zrotation
					JOINT LeftToeBase
					{
						OFFSET 0.108149 -7.191104 7.560241
						CHANNELS 3 Xrotation Yrotation Zrotation
						JOINT LeftToe_End
						{
							OFFSET 0.070230 0.081724 4.490308
							CHANNELS 3 Xrotation Yrotation Zrotation
							End Site
							{
								OFFSET 0 0 0
							}
						}
					}
				}
			}
		}
	}
	JOINT RightUpLeg_virtual
	{
		OFFSET 0.000000 0.000000 0.000000
		CHANNELS 3 Xrotation Yrotation Zrotation
		JOINT RightUpLeg
		{
			OFFSET -10.205400 -3.823500 0.005500
			CHANNELS 3 Xrotation Yrotation Zrotation
			JOINT RightLeg
			{
				OFFSET -0.708756 -12.982134 0.610632
				CHANNELS 3 Xrotation Yrotation Zrotation
				JOINT RightFoot
				{
					OFFSET 0.708754 -10.717769 -1.945823
					CHANNELS 3 Xrotation Yrotation Zrotation
					JOINT RightToeBase
					{
						OFFSET -0.108140 -7.191069 7.372968
						CHANNELS 3 Xrotation Yrotation Zrotation
						JOINT RightToe_End
						{
							OFFSET -0.070227 0.081735 4.479403
							CHANNELS 3 Xrotation Yrotation Zrotation
							End Site
							{
								OFFSET 0 0 0
							}
						}
					}
				}
			}
		}
	}
	JOINT Spine_virtual
	{
		OFFSET 0.000000 0.000000 0.000000
		CHANNELS 3 Xrotation Yrotation Zrotation
		JOINT Spine
		{
			OFFSET 0.000000 6.876099 0.125700
			CHANNELS 3 Xrotation Yrotation Zrotation
			JOINT Spine1
			{
				OFFSET 0.000000 5.730043 0.104720
				CHANNELS 3 Xrotation Yrotation Zrotation
				JOINT Spine1_split
				{
					OFFSET 0.000000 5.730043 0.104720
					CHANNELS 3 Xrotation Yrotation Zrotation
					JOINT Spine2
					{
						OFFSET 0.000000 5.730043 0.104720
						CHANNELS 3 Xrotation Yrotation Zrotation
						JOINT Neck_virtual
						{
							OFFSET 0.000000 0.000000 0.000000
							CHANNELS 3 Xrotation Yrotation Zrotation
							JOINT Neck
							{
								OFFSET 0.000000 10.314075 0.188496
								CHANNELS 3 Xrotation Yrotation Zrotation
								JOINT Head
								{
									OFFSET 0.000000 7.643700 -2.377400
									CHANNELS 3 Xrotation Yrotation Zrotation
									JOINT HeadTop_End
									{
										OFFSET 0.000000 43.788605 -13.619600
										CHANNELS 3 Xrotation Yrotation Zrotation
										End Site
										{
											OFFSET 0 0 0
										}
									}
								}
							}
						}
						JOINT LeftShoulder_virtual
						{
							OFFSET 0.000000 0.000000 0.000000
							CHANNELS 3 Xrotation Yrotation Zrotation
							JOINT LeftShoulder
							{
								OFFSET 2.196100 4.412489 0.087492
								CHANNELS 3 Xrotation Yrotation Zrotation
								JOINT LeftShoulder_split
								{
									OFFSET 2.196100 4.412489 0.087492
									CHANNELS 3 Xrotation Yrotation Zrotation
									JOINT LeftArm
									{
										OFFSET 8.771219 -2.981674 -0.026999
										CHANNELS 3 Xrotation Yrotation Zrotation
										JOINT LeftForeArm
										{
											OFFSET 8.512804 0.000000 -0.000000
											CHANNELS 3 Xrotation Yrotation Zrotation
											JOINT LeftHand
											{
												OFFSET 18.484802 0.000000 -0.000000
												CHANNELS 3 Xrotation Yrotation Zrotation
												End Site
												{
													OFFSET 0 0 0
												}
											}
										}
									}
								}
							}
						}
						JOINT RightShoulder_virtual
						{
							OFFSET 0.000000 0.000000 0.000000
							CHANNELS 3 Xrotation Yrotation Zrotation
							JOINT RightShoulder
							{
								OFFSET -2.196100 4.412496 0.070690
								CHANNELS 3 Xrotation Yrotation Zrotation
								JOINT RightShoulder_split
								{
									OFFSET -2.196100 4.412496 0.070690
									CHANNELS 3 Xrotation Yrotation Zrotation
									JOINT RightArm
									{
										OFFSET -8.771282 -2.981682 -0.094208
										CHANNELS 3 Xrotation Yrotation Zrotation
										JOINT RightForeArm
										{
											OFFSET -8.494598 0.000000 0.000000
											CHANNELS 3 Xrotation Yrotation Zrotation
											JOINT RightHand
											{
												OFFSET -18.483803 0.000000 0.000001
												CHANNELS 3 Xrotation Yrotation Zrotation
												End Site
												{
													OFFSET 0 0 0
												}
											}
										}
									}
								}
							}
						}
					}
				}
			}
		}
	}
}
MOTION
Frames: 8
Frame Time: 0.03333333
0.418341 34.176277 -0.701136 0.000000 0.000000 0.000000 3.676912 -29.538256 0.635245 -15.584630 19.148710 13.033204 21.980625 11.024329 -1.095984 -6.951451 -1.521172 -8.965976 -0.235524 0.288626 -0.029012 0.000000 0.000000 0.000000 6.588534 -28.380792 1.378665 -3.032828 3.498258 -6.739271 8.965041 12.345363 1.922632 -11.711671 -3.100422 5.982912 2.468113 -0.330481 -1.607490 0.000000 0.000000 0.000000 1.692964 -30.906476 -1.606278 7.266282 1.347113 -1.894705 0.188151 0.930095 2.730771 2.517513 2.018576 -0.242410 0.000000 0.000000 0.000000 0.839315 0.763043 4.078574 -2.289606 23.899411 -9.880226 -2.471480 10.433345 6.733094 0.000000 0.000000 0.000000 -0.027706 1.125071 2.815977 0.685329 -13.552869 1.857540 -2.533517 -1.124856 -2.995097 -56.341158 -1.010284 -35.044598 11.840223 -61.236122 14.732964 0.000000 0.000000 0.000000 1.210124 1.160300 3.529397 4.544483 3.652661 8.379055 1.440933 2.366896 -3.792456 -1.265390 -11.345740 65.522456 15.189273 32.042207 -3.240216 0.000000 0.000000 0.000000 
0.581881 34.138317 -0.841652 0.000000 0.000000 0.000000 3.865096 -28.965036 1.095151 -15.410978 18.212477 13.080963 21.771346 10.577406 -1.318472 -6.795419 -1.753531 -8.532733 0.421905 0.248536 -0.193997 0.000000 0.000000 0.000000 6.372646 -27.500908 1.608140 -3.492970 2.682313 -7.525192 8.709129 12.323651 1.756065 -11.720965 -2.957352 5.034876 4.517598 -0.294691 -1.440516 0.000000 0.000000 0.000000 1.763059 -31.413027 -1.219914 7.296379 1.156143 -1.557149 0.158813 0.668733 2.638777 1.543057 3.200303 -0.470085 0.000000 0.000000 0.000000 1.147934 0.448419 3.933017 -1.908538 23.607405 -9.768617 -3.103527 11.129818 6.004537 0.000000 0.000000 0.000000 -0.131504 0.939358 2.780540 0.440082 -12.584241 1.465546 -0.820020 -2.326328 -2.392244 -56.925652 -1.312332 -35.569832 12.810502 -61.948873 15.004864 0.000000 0.000000 0.000000 0.992615 0.792175 3.387589 4.211458 3.491697 7.644250 1.119862 1.508008 -2.896935 -1.622729 -10.415268 66.356790 14.421068 30.241598 -2.588828 0.000000 0.000000 0.000000 
0.734010 34.040585 -0.975607 0.000000 0.000000 0.000000 4.194179 -28.481865 1.769988 -15.274118 17.334052 13.261997 21.016600 10.636745 -1.627281 -7.032921 -1.341017 -7.568690 1.094384 0.179467 -0.426004 0.000000 0.000000 0.000000 6.182028 -26.397120 1.970827 -5.130588 1.642282 -8.824190 9.590402 12.873791 1.575370 -10.687683 -2.518792 5.188795 4.249635 -0.304184 -1.394600 0.000000 0.000000 0.000000 2.140974 -31.848995 -0.600726 7.688431 0.901228 -0.614469 0.165261 0.346433 2.064162 0.917859 3.926300 -0.389686 0.000000 0.000000 0.000000 1.593554 0.103667 3.290980 -2.111023 22.884013 -10.208998 -4.633601 12.229368 4.755559 0.000000 0.000000 0.000000 -0.075646 0.775438 2.322879 0.153214 -11.178806 0.549657 0.694160 -3.382489 -1.252811 -56.686274 -1.213163 -35.788412 11.191607 -62.830780 12.852190 0.000000 0.000000 0.000000 0.800004 0.388768 2.759794 3.801983 3.552619 5.746654 0.476263 0.801793 -1.821978 -1.397146 -10.306788 68.568146 12.925301 27.892228 -1.359223 0.000000 0.000000 0.000000 
0.965811 33.850445 -1.124683 0.000000 0.000000 0.000000 4.507012 -28.563149 2.502515 -15.406578 16.408379 13.488328 20.468723 10.788938 -2.014999 -7.753275 -0.679552 -6.796034 1.189245 0.095336 -0.520166 0.000000 0.000000 0.000000 5.991206 -25.805672 2.457850 -7.926310 0.664754 -10.332449 11.813245 13.779064 1.302410 -9.478250 -1.998371 5.618181 2.580860 -0.438681 -1.273692 0.000000 0.000000 0.000000 2.814034 -32.465925 0.227554 8.479654 0.647134 0.714382 0.217697 0.035391 1.115347 1.007455 4.164871 0.137829 0.000000 0.000000 0.000000 2.000680 -0.169768 2.231881 -2.703697 21.634928 -11.160342 -6.733122 13.452888 3.212841 0.000000 0.000000 0.000000 0.157503 0.631716 1.492832 -0.126074 -9.671840 -0.688683 1.908416 -4.003758 -0.129973 -55.842845 -0.258582 -34.947056 6.590372 -63.601485 8.022528 0.000000 0.000000 0.000000 0.675129 0.048771 1.727341 3.465565 3.652327 2.852277 -0.103921 0.186495 -0.837107 -0.132520 -11.232072 71.979368 11.068184 26.567575 0.061036 0.000000 0.000000 0.000000 
1.306282 33.561985 -1.229332 0.000000 0.000000 0.000000 4.709765 -29.489454 3.181139 -15.915290 15.082446 13.627488 21.061138 10.526810 -2.484459 -8.894902 -0.339139 -6.922160 0.742032 -0.003498 -0.405253 0.000000 0.000000 0.000000 5.835356 -26.545110 3.026922 -11.719089 0.008302 -11.445503 15.074154 14.631319 0.919043 -8.734610 -1.600467 5.376528 1.596636 -0.729725 -1.004135 0.000000 0.000000 0.000000 3.724174 -33.605063 1.269734 9.718651 0.456190 2.136359 0.264851 -0.179456 -0.042675 1.042063 3.992380 0.510524 0.000000 0.000000 0.000000 2.275871 -0.294863 0.960902 -3.413215 19.761460 -12.390726 -9.116927 14.398995 1.601094 0.000000 0.000000 0.000000 0.495010 0.541047 0.436296 -0.342927 -8.546465 -1.698307 2.976441 -4.100505 0.697906 -54.840057 1.754953 -32.741635 -0.696965 -64.190664 0.721741 0.000000 0.000000 0.000000 0.580418 -0.159250 0.473842 3.271170 3.737580 -0.791184 -0.300490 -0.559650 0.089560 2.770165 -12.663737 76.088984 9.213275 27.050541 1.337188 0.000000 0.000000 0.000000 
1.786800 33.164429 -1.205868 0.000000 0.000000 0.000000 4.822112 -31.532272 3.710884 -17.010031 13.008631 13.489094 23.342653 9.747468 -3.029368 -10.949645 -0.603780 -7.787303 0.377442 -0.141450 -0.144526 0.000000 0.000000 0.000000 5.732370 -29.126488 3.637507 -16.520715 -0.088372 -11.795839 19.216331 15.382995 0.404139 -8.246876 -1.156781 4.612454 2.001654 -1.105390 -0.680419 0.000000 0.000000 0.000000 4.903934 -35.828474 2.468291 11.450643 0.377610 3.357941 0.261417 -0.221154 -1.135859 0.429809 3.711740 0.782126 0.000000 0.000000 0.000000 2.386721 -0.267560 -0.263861 -3.985546 17.101755 -13.565651 -11.523139 14.459751 0.212633 0.000000 0.000000 0.000000 0.838629 0.510641 -0.581129 -0.458097 -7.929938 -2.058651 3.878149 -3.816255 1.163971 -54.732457 4.512878 -29.565754 -9.905768 -64.958610 -8.470383 0.000000 0.000000 0.000000 0.487847 -0.231901 -0.710334 3.247013 3.851793 -4.779571 -0.293939 -1.390988 0.769660 7.387064 -13.611762 80.168444 7.717402 29.448890 2.204729 0.000000 0.000000 0.000000 
2.419462 32.688797 -1.116131 0.000000 0.000000 0.000000 4.897141 -34.667127 4.031112 -18.597970 9.930242 13.043681 26.935266 8.570209 -3.471756 -14.443504 -1.353803 -8.958320 0.371218 -0.294695 0.191413 0.000000 0.000000 0.000000 5.912242 -33.559755 4.275024 -22.007887 0.573719 -11.186624 23.437666 16.410720 -0.244440 -7.267659 -0.232898 4.537389 2.664428 -1.428828 -0.628200 0.000000 0.000000 0.000000 6.235535 -39.197687 3.704676 13.677241 0.419845 4.171501 0.169598 -0.085343 -1.853653 -0.315634 3.443857 0.683335 0.000000 0.000000 0.000000 2.311462 -0.081095 -1.161165 -4.218984 13.607337 -14.301807 -13.868090 13.134229 -0.790406 0.000000 0.000000 0.000000 1.046683 0.559092 -1.250551 -0.480796 -7.849163 -1.616821 4.599833 -2.984578 1.238995 -56.198079 7.181851 -26.278343 -20.755212 -66.196513 -19.427034 0.000000 0.000000 0.000000 0.394990 -0.159535 -1.511676 3.401250 4.234742 -8.594470 -0.385808 -2.252625 1.207209 12.883788 -13.227413 83.114147 7.025876 32.699537 2.250973 0.000000 0.000000 0.000000 
3.140067 32.196381 -0.982471 0.000000 0.000000 0.000000 5.102612 -38.945172 4.156024 -20.248145 5.924982 12.314287 31.054159 7.294726 -3.720483 -19.002901 -2.154332 -10.194090 0.562337 -0.402141 0.465249 0.000000 0.000000 0.000000 6.442798 -39.432707 4.820012 -27.614204 1.907502 -9.441705 26.558029 17.910897 -1.064357 -5.246189 1.511010 6.074846 2.534879 -1.615628 -1.090786 0.000000 0.000000 0.000000 7.695275 -43.649079 4.814747 16.308689 0.560907 4.440674 -0.060278 0.157840 -1.965798 -0.538081 2.962645 0.204052 0.000000 0.000000 0.000000 2.059004 0.209184 -1.455517 -4.009191 9.169369 -14.171878 -16.004381 10.068765 -1.366964 0.000000 0.000000 0.000000 1.065828 0.682502 -1.329126 -0.360638 -8.309534 -0.281336 5.412914 -1.817336 1.161088 -59.417468 8.894569 -23.734223 -32.799210 -67.729474 -31.927801 0.000000 0.000000 0.000000 0.294017 0.030903 -1.658948 3.679686 5.073330 -11.713037 -0.934395 -2.552917 1.480253 18.056269 -10.997269 83.763719 7.580116 35.266702 1.014933 0.000000 0.000000 0.000000 
